<svg width="21" height="26" viewBox="0 0 21 26" fill="none" xmlns="http://www.w3.org/2000/svg">
<path d="M16.9167 9.08331V6.58331C16.9167 3.08331 14.1667 0.333313 10.6667 0.333313C7.16675 0.333313 4.41675 3.08331 4.41675 6.58331V9.08331C2.29175 9.08331 0.666748 10.7083 0.666748 12.8333V21.5833C0.666748 23.7083 2.29175 25.3333 4.41675 25.3333H16.9167C19.0417 25.3333 20.6667 23.7083 20.6667 21.5833V12.8333C20.6667 10.7083 19.0417 9.08331 16.9167 9.08331ZM6.91675 6.58331C6.91675 4.45831 8.54175 2.83331 10.6667 2.83331C12.7917 2.83331 14.4167 4.45831 14.4167 6.58331V9.08331H6.91675V6.58331Z" fill="#545454"/>
<path d="M10.6667 13.338C9.67784 13.338 8.71114 13.6313 7.8889 14.1807C7.06665 14.7301 6.42579 15.511 6.04735 16.4246C5.66891 17.3382 5.5699 18.3436 5.76282 19.3135C5.95575 20.2834 6.43195 21.1743 7.13122 21.8735C7.83048 22.5728 8.72139 23.049 9.6913 23.2419C10.6612 23.4349 11.6665 23.3358 12.5802 22.9574C13.4938 22.579 14.2747 21.9381 14.8241 21.1159C15.3735 20.2936 15.6667 19.3269 15.6667 18.338C15.6653 17.0124 15.1381 15.7414 14.2007 14.804C13.2634 13.8666 11.9924 13.3394 10.6667 13.338ZM12.086 20.376C12.0988 20.4053 12.1042 20.4373 12.1016 20.4691C12.099 20.501 12.0885 20.5317 12.071 20.5585C12.0535 20.5852 12.0297 20.6072 12.0016 20.6225C11.9734 20.6377 11.942 20.6457 11.91 20.6457H9.42348C9.39151 20.6457 9.36005 20.6377 9.33194 20.6225C9.30383 20.6072 9.27997 20.5852 9.2625 20.5585C9.24503 20.5317 9.23451 20.501 9.2319 20.4691C9.22928 20.4373 9.23465 20.4053 9.24752 20.376L9.89752 18.9015C9.60422 18.7321 9.375 18.4708 9.2454 18.1579C9.11579 17.845 9.09306 17.4981 9.18071 17.1709C9.26836 16.8438 9.46151 16.5548 9.73019 16.3486C9.99888 16.1424 10.3281 16.0307 10.6667 16.0307C11.0054 16.0307 11.3346 16.1424 11.6033 16.3486C11.872 16.5548 12.0651 16.8438 12.1528 17.1709C12.2404 17.4981 12.2177 17.845 12.0881 18.1579C11.9585 18.4708 11.7293 18.7321 11.436 18.9015L12.086 20.376Z" fill="#ABABAB"/>
</svg>
