<svg width="100" height="101" viewBox="0 0 100 101" fill="none" xmlns="http://www.w3.org/2000/svg">
<path fill-rule="evenodd" clip-rule="evenodd" d="M49.9999 8.95557C51.105 8.95557 52.1648 9.39455 52.9462 10.176C53.7276 10.9574 54.1666 12.0172 54.1666 13.1222V17.2889C54.1666 18.394 53.7276 19.4538 52.9462 20.2352C52.1648 21.0166 51.105 21.4556 49.9999 21.4556C48.8948 21.4556 47.835 21.0166 47.0536 20.2352C46.2722 19.4538 45.8333 18.394 45.8333 17.2889V13.1222C45.8333 12.0172 46.2722 10.9574 47.0536 10.176C47.835 9.39455 48.8948 8.95557 49.9999 8.95557ZM8.33325 50.6222C8.33325 49.5172 8.77224 48.4574 9.55364 47.676C10.335 46.8946 11.3948 46.4556 12.4999 46.4556H16.6666C17.7717 46.4556 18.8315 46.8946 19.6129 47.676C20.3943 48.4574 20.8333 49.5172 20.8333 50.6222C20.8333 51.7273 20.3943 52.7871 19.6129 53.5685C18.8315 54.3499 17.7717 54.7889 16.6666 54.7889H12.4999C11.3948 54.7889 10.335 54.3499 9.55364 53.5685C8.77224 52.7871 8.33325 51.7273 8.33325 50.6222ZM79.1666 50.6222C79.1666 49.5172 79.6056 48.4574 80.387 47.676C81.1684 46.8946 82.2282 46.4556 83.3332 46.4556H87.4999C88.605 46.4556 89.6648 46.8946 90.4462 47.676C91.2276 48.4574 91.6666 49.5172 91.6666 50.6222C91.6666 51.7273 91.2276 52.7871 90.4462 53.5685C89.6648 54.3499 88.605 54.7889 87.4999 54.7889H83.3332C82.2282 54.7889 81.1684 54.3499 80.387 53.5685C79.6056 52.7871 79.1666 51.7273 79.1666 50.6222ZM54.1666 83.9556C54.1666 82.8505 53.7276 81.7907 52.9462 81.0093C52.1648 80.2279 51.105 79.7889 49.9999 79.7889C48.8948 79.7889 47.835 80.2279 47.0536 81.0093C46.2722 81.7907 45.8333 82.8505 45.8333 83.9556V88.1222C45.8333 89.2273 46.2722 90.2871 47.0536 91.0685C47.835 91.8499 48.8948 92.2889 49.9999 92.2889C51.105 92.2889 52.1648 91.8499 52.9462 91.0685C53.7276 90.2871 54.1666 89.2273 54.1666 88.1222V83.9556ZM76.5166 71.2472C76.1322 70.8493 75.6724 70.5318 75.1641 70.3135C74.6557 70.0951 74.109 69.9802 73.5558 69.9754C73.0025 69.9705 72.4538 70.076 71.9418 70.2855C71.4297 70.495 70.9645 70.8044 70.5733 71.1956C70.1821 71.5868 69.8727 72.052 69.6632 72.5641C69.4537 73.0762 69.3482 73.6248 69.353 74.1781C69.3578 74.7313 69.4728 75.2781 69.6912 75.7864C69.9095 76.2948 70.227 76.7545 70.6249 77.1389L73.5707 80.0847C74.3566 80.8437 75.4091 81.2637 76.5016 81.2542C77.5941 81.2447 78.6391 80.8065 79.4117 80.034C80.1842 79.2614 80.6224 78.2164 80.6319 77.1239C80.6414 76.0314 80.2214 74.9789 79.4624 74.1931L76.5166 71.2472ZM20.5374 21.1597C21.3188 20.3786 22.3784 19.9398 23.4833 19.9398C24.5881 19.9398 25.6477 20.3786 26.4291 21.1597L29.3749 24.1056C30.1339 24.8914 30.5539 25.9439 30.5444 27.0364C30.5349 28.1289 30.0967 29.1739 29.3242 29.9465C28.5516 30.719 27.5066 31.1572 26.4141 31.1667C25.3216 31.1762 24.2691 30.7562 23.4833 29.9972L20.5374 27.0514C19.7563 26.27 19.3175 25.2104 19.3175 24.1056C19.3175 23.0007 19.7563 21.9411 20.5374 21.1597ZM29.3749 77.1389C29.7729 76.7545 30.0903 76.2948 30.3087 75.7864C30.527 75.2781 30.642 74.7313 30.6468 74.1781C30.6516 73.6248 30.5462 73.0762 30.3367 72.5641C30.1272 72.052 29.8178 71.5868 29.4266 71.1956C29.0353 70.8044 28.5701 70.495 28.0581 70.2855C27.546 70.076 26.9973 69.9705 26.4441 69.9754C25.8908 69.9802 25.3441 70.0951 24.8357 70.3135C24.3274 70.5318 23.8676 70.8493 23.4833 71.2472L20.5374 74.1931C20.1395 74.5774 19.822 75.0372 19.6037 75.5455C19.3853 76.0539 19.2703 76.6006 19.2655 77.1539C19.2607 77.7071 19.3662 78.2558 19.5757 78.7679C19.7852 79.2799 20.0946 79.7452 20.4858 80.1364C20.877 80.5276 21.3422 80.837 21.8543 81.0465C22.3663 81.256 22.915 81.3614 23.4683 81.3566C24.0215 81.3518 24.5683 81.2369 25.0766 81.0185C25.585 80.8001 26.0447 80.4827 26.4291 80.0847L29.3749 77.1389ZM79.4624 21.1597C80.2435 21.9411 80.6824 23.0007 80.6824 24.1056C80.6824 25.2104 80.2435 26.27 79.4624 27.0514L76.5166 29.9972C76.1322 30.3952 75.6724 30.7126 75.1641 30.931C74.6557 31.1494 74.109 31.2643 73.5558 31.2691C73.0025 31.2739 72.4538 31.1685 71.9418 30.959C71.4297 30.7495 70.9645 30.4401 70.5733 30.0489C70.1821 29.6577 69.8727 29.1924 69.6632 28.6804C69.4537 28.1683 69.3482 27.6196 69.353 27.0664C69.3578 26.5131 69.4728 25.9664 69.6912 25.458C69.9095 24.9497 70.227 24.4899 70.6249 24.1056L73.5707 21.1597C74.3521 20.3786 75.4117 19.9398 76.5166 19.9398C77.6214 19.9398 78.681 20.3786 79.4624 21.1597ZM29.1666 50.6222C29.1666 45.0969 31.3615 39.7978 35.2685 35.8908C39.1755 31.9838 44.4746 29.7889 49.9999 29.7889C55.5253 29.7889 60.8243 31.9838 64.7313 35.8908C68.6383 39.7978 70.8332 45.0969 70.8332 50.6222C70.8332 56.1476 68.6383 61.4466 64.7313 65.3536C60.8243 69.2606 55.5253 71.4556 49.9999 71.4556C44.4746 71.4556 39.1755 69.2606 35.2685 65.3536C31.3615 61.4466 29.1666 56.1476 29.1666 50.6222Z" fill="#F2F2F5"/>
</svg>
