<svg width="100" height="101" viewBox="0 0 100 101" fill="none" xmlns="http://www.w3.org/2000/svg">
<path d="M50.2418 83.9557C40.9834 83.9557 33.1126 80.714 26.6293 74.2307C20.1459 67.7474 16.9057 59.8779 16.9084 50.6224C16.9084 43.7613 18.8709 37.4626 22.7959 31.7265C26.7237 25.9849 32.2932 21.8557 39.5043 19.339C40.3543 19.0418 41.0987 18.964 41.7376 19.1057C42.3765 19.2474 42.9057 19.5238 43.3251 19.9349C43.7446 20.346 44.0112 20.8738 44.1251 21.5182C44.2362 22.1654 44.1487 22.8446 43.8626 23.5557C43.3237 24.8807 42.9321 26.2293 42.6876 27.6015C42.4432 28.9738 42.3223 30.3974 42.3251 31.8724C42.3251 39.2974 44.9126 45.5988 50.0876 50.7765C55.2654 55.9515 61.5668 58.539 68.9918 58.539C70.9307 58.539 72.7043 58.3335 74.3126 57.9224C75.9237 57.5113 77.2959 57.1779 78.4293 56.9224C79.0348 56.8113 79.589 56.8251 80.0918 56.964C80.5946 57.1029 81.0001 57.3474 81.3084 57.6974C81.6279 58.0446 81.8446 58.4724 81.9584 58.9807C82.0723 59.489 82.0071 60.0682 81.7626 60.7182C79.7765 67.5238 75.8834 73.0974 70.0834 77.439C64.2834 81.7807 57.6696 83.9529 50.2418 83.9557Z" fill="#0E0D13"/>
</svg>
