<svg width="76" height="84" viewBox="0 0 76 84" fill="none" xmlns="http://www.w3.org/2000/svg">
<path d="M75.5 29.25C75.4569 28.8672 75.3731 28.4901 75.25 28.125V27.75C75.0543 27.319 74.7866 26.9245 74.4583 26.5834L49.4583 1.58337C49.1172 1.25513 48.7227 0.987406 48.2917 0.791707C48.1674 0.77285 48.041 0.77285 47.9167 0.791707C47.4925 0.550967 47.0254 0.395282 46.5417 0.333374H29.6667C26.3515 0.333374 23.172 1.65033 20.8278 3.99454C18.4836 6.33874 17.1667 9.51817 17.1667 12.8334V17H13C9.68479 17 6.50537 18.317 4.16117 20.6612C1.81696 23.0054 0.5 26.1848 0.5 29.5V71.1667C0.5 74.4819 1.81696 77.6613 4.16117 80.0055C6.50537 82.3497 9.68479 83.6667 13 83.6667H46.3333C49.6485 83.6667 52.828 82.3497 55.1722 80.0055C57.5164 77.6613 58.8333 74.4819 58.8333 71.1667V67H63C66.3152 67 69.4946 65.6831 71.8388 63.3389C74.183 60.9947 75.5 57.8152 75.5 54.5V29.25ZM50.5 14.5417L61.2917 25.3334H54.6667C53.5616 25.3334 52.5018 24.8944 51.7204 24.113C50.939 23.3316 50.5 22.2718 50.5 21.1667V14.5417ZM50.5 71.1667C50.5 72.2718 50.061 73.3316 49.2796 74.113C48.4982 74.8944 47.4384 75.3334 46.3333 75.3334H13C11.8949 75.3334 10.8351 74.8944 10.0537 74.113C9.27232 73.3316 8.83333 72.2718 8.83333 71.1667V29.5C8.83333 28.395 9.27232 27.3352 10.0537 26.5538C10.8351 25.7724 11.8949 25.3334 13 25.3334H17.1667V54.5C17.1667 57.8152 18.4836 60.9947 20.8278 63.3389C23.172 65.6831 26.3515 67 29.6667 67H50.5V71.1667ZM67.1667 54.5C67.1667 55.6051 66.7277 56.6649 65.9463 57.4463C65.1649 58.2277 64.1051 58.6667 63 58.6667H29.6667C28.5616 58.6667 27.5018 58.2277 26.7204 57.4463C25.939 56.6649 25.5 55.6051 25.5 54.5V12.8334C25.5 11.7283 25.939 10.6685 26.7204 9.8871C27.5018 9.10569 28.5616 8.66671 29.6667 8.66671H42.1667V21.1667C42.1667 24.4819 43.4836 27.6613 45.8278 30.0055C48.172 32.3497 51.3515 33.6667 54.6667 33.6667H67.1667V54.5Z" fill="#2BB673"/>
</svg>
